<?xml version="1.0" standalone="no"?>
<!DOCTYPE svg PUBLIC "-//W3C//DTD SVG 20010904//EN"
 "http://www.w3.org/TR/2001/REC-SVG-20010904/DTD/svg10.dtd">
<svg version="1.0" xmlns="http://www.w3.org/2000/svg"
 width="758.000000pt" height="758.000000pt" viewBox="0 0 758.000000 758.000000"
 preserveAspectRatio="xMidYMid meet">
<metadata>
Created by potrace 1.14, written by Peter Selinger 2001-2017
</metadata>
<g transform="translate(0.000000,758.000000) scale(0.100000,-0.100000)"
fill="#000000" stroke="none">
<path d="M3537 7564 c-2 -2 -35 -7 -73 -9 -38 -3 -94 -7 -124 -10 -30 -3 -75
-8 -100 -10 -107 -10 -159 -16 -215 -26 -33 -6 -69 -12 -80 -14 -54 -8 -102
-17 -117 -21 -10 -3 -28 -7 -41 -10 -13 -2 -53 -13 -88 -25 -35 -11 -71 -22
-79 -24 -32 -7 -148 -48 -255 -90 -11 -4 -24 -9 -30 -10 -23 -5 -369 -171
-405 -195 -8 -5 -55 -33 -105 -62 -49 -29 -94 -56 -100 -60 -5 -5 -40 -28 -77
-52 -114 -75 -253 -183 -382 -296 -57 -50 -306 -298 -306 -305 0 -2 -14 -19
-30 -37 -17 -18 -39 -43 -49 -54 -19 -21 -183 -242 -209 -280 -108 -162 -152
-237 -233 -391 -26 -51 -45 -93 -41 -93 4 0 2 -4 -4 -8 -18 -13 -155 -336
-156 -369 0 -5 -3 -12 -8 -18 -8 -10 -40 -116 -38 -125 1 -3 -4 -14 -10 -26
-14 -27 -75 -265 -101 -394 -34 -174 -50 -287 -68 -485 -15 -162 -8 -624 11
-755 3 -19 8 -53 10 -75 11 -96 57 -332 85 -435 19 -67 73 -245 81 -265 5 -11
27 -69 50 -130 44 -112 164 -365 221 -465 230 -400 542 -763 906 -1056 60 -48
119 -94 133 -103 14 -8 27 -18 30 -22 3 -3 41 -30 85 -59 44 -29 83 -58 87
-64 4 -6 8 -8 8 -3 0 4 22 -9 50 -28 27 -19 51 -35 53 -35 2 0 42 -22 88 -48
73 -42 305 -158 364 -182 11 -4 36 -15 55 -23 145 -63 459 -171 480 -165 3 1
14 -4 26 -10 11 -6 32 -13 45 -16 13 -2 74 -16 134 -30 130 -30 190 -41 264
-51 14 -2 26 -4 26 -5 0 -3 125 -17 240 -28 144 -13 635 -7 635 8 0 3 17 5 38
5 36 0 124 11 166 20 12 2 39 7 61 10 50 7 304 66 335 78 8 3 29 9 45 13 52
13 40 8 230 77 122 44 144 53 298 126 60 28 112 51 117 51 4 0 10 3 12 8 2 4
26 18 53 32 28 13 85 46 128 72 43 26 80 48 82 48 11 0 328 224 361 255 6 5
26 21 44 35 111 84 327 291 461 441 119 132 309 377 309 398 0 5 4 11 9 13 10
4 129 191 185 291 59 106 140 273 181 372 20 50 41 99 46 110 11 24 79 223 84
245 2 8 4 15 5 15 1 0 3 7 5 15 2 8 17 67 34 131 30 114 39 155 45 194 2 11 6
34 10 50 3 17 8 48 11 70 2 22 7 51 10 65 3 14 7 50 10 80 3 30 8 91 12 135
15 163 8 647 -12 785 -3 19 -7 53 -10 75 -11 91 -15 115 -36 220 -11 61 -23
117 -25 125 -9 37 -26 106 -29 120 -8 36 -66 227 -75 245 -5 11 -18 47 -30 80
-11 33 -27 74 -34 90 -8 17 -26 59 -41 95 -15 36 -31 69 -36 74 -5 6 -9 15 -9
22 0 6 -32 69 -70 140 -38 70 -70 130 -70 131 0 2 -8 16 -19 31 -10 15 -45 68
-77 117 -69 106 -159 227 -258 345 -84 101 -334 354 -426 431 -35 30 -73 62
-85 73 -11 10 -74 59 -140 107 -66 49 -124 92 -130 96 -12 10 -100 68 -177
117 -31 20 -61 36 -67 36 -6 0 -11 5 -11 10 0 6 -6 10 -14 10 -8 0 -21 6 -28
13 -20 19 -299 159 -408 205 -176 74 -433 161 -553 188 -31 7 -39 9 -62 17
-11 3 -37 8 -59 12 -21 3 -43 8 -48 11 -6 4 -24 8 -41 9 -18 2 -57 8 -87 13
-55 11 -103 18 -195 28 -27 3 -66 8 -85 11 -44 7 -577 13 -583 7z m478 -108
c44 -3 103 -8 130 -11 28 -3 73 -8 100 -11 28 -3 57 -7 65 -9 8 -2 35 -7 60
-10 62 -9 214 -39 248 -49 9 -3 28 -8 42 -10 14 -3 57 -15 95 -26 39 -12 77
-23 85 -25 8 -2 16 -4 18 -4 1 -1 4 -1 7 -1 3 0 25 -9 50 -20 25 -11 45 -17
45 -14 0 2 13 -2 30 -11 16 -8 32 -15 35 -14 4 1 36 -11 73 -26 37 -15 85 -35
107 -44 40 -16 373 -181 410 -204 11 -6 35 -22 53 -35 17 -13 32 -21 32 -18 0
3 30 -15 68 -40 37 -24 75 -50 86 -57 95 -62 299 -220 410 -317 60 -52 333
-327 366 -369 19 -24 41 -50 49 -58 7 -8 57 -72 110 -143 150 -201 280 -420
378 -640 11 -25 30 -66 41 -91 12 -26 24 -60 28 -75 4 -16 10 -33 14 -39 15
-20 103 -309 124 -405 24 -114 47 -233 52 -270 2 -25 7 -52 9 -60 6 -22 19
-148 30 -290 12 -149 7 -469 -10 -640 -10 -104 -16 -158 -20 -180 -3 -14 -7
-41 -10 -60 -32 -194 -133 -559 -181 -651 -8 -16 -12 -29 -10 -29 5 0 -62
-156 -110 -255 -71 -149 -206 -383 -278 -482 -17 -23 -49 -68 -71 -99 -22 -32
-62 -85 -90 -119 -27 -34 -66 -81 -85 -105 -104 -129 -344 -366 -495 -489 -27
-22 -58 -47 -67 -55 -33 -29 -274 -199 -295 -209 -13 -6 -23 -14 -23 -19 0 -4
-6 -8 -14 -8 -8 0 -21 -6 -28 -14 -40 -39 -393 -219 -573 -291 -65 -26 -258
-94 -280 -99 -5 -2 -30 -8 -55 -15 -25 -7 -52 -15 -60 -17 -8 -2 -44 -11 -80
-19 -95 -24 -93 -24 -245 -50 -77 -13 -169 -26 -205 -30 -36 -3 -86 -8 -113
-11 -163 -17 -564 0 -741 32 -17 3 -46 7 -64 8 -18 2 -35 6 -39 10 -3 3 -18 6
-32 6 -21 1 -156 30 -293 64 -67 17 -157 45 -238 73 -52 19 -102 36 -110 38
-8 2 -16 4 -17 5 -2 2 -6 3 -10 5 -28 7 -288 119 -321 137 -18 10 -39 18 -46
18 -8 0 -16 3 -18 8 -1 4 -34 23 -73 42 -38 19 -117 63 -174 97 -58 35 -108
63 -112 63 -4 0 -9 3 -11 8 -1 4 -31 25 -65 47 -35 22 -63 43 -63 48 0 4 -4 7
-10 7 -8 0 -160 110 -180 130 -3 3 -34 30 -70 60 -227 191 -440 421 -616 665
-44 61 -70 100 -159 240 -45 69 -171 317 -225 440 -28 64 -110 291 -125 345
-38 138 -72 283 -99 425 -2 11 -7 45 -11 75 -4 30 -9 62 -10 70 -2 8 -6 51
-10 95 -4 44 -9 96 -11 115 -4 43 -4 428 0 490 8 108 18 216 21 230 2 8 7 40
10 70 9 76 26 185 41 250 3 14 7 36 10 50 13 64 47 202 66 265 25 81 26 85 31
105 2 8 6 22 9 30 101 276 113 306 199 487 74 154 250 447 325 543 185 234
212 265 350 404 219 220 408 371 668 531 157 96 468 255 531 270 6 1 24 8 40
14 36 16 186 71 200 75 6 1 37 11 70 21 33 10 65 19 70 21 6 1 30 7 55 14 25
7 52 13 60 15 8 1 35 6 60 11 25 5 50 9 55 10 6 0 37 4 70 9 33 5 69 9 80 11
11 1 20 3 20 4 0 0 25 3 55 5 30 2 80 7 110 10 108 11 157 15 275 21 66 3 121
7 122 8 3 3 212 -3 298 -8z"/>
<path d="M3980 7079 c-25 -3 -64 -9 -87 -12 -24 -4 -71 -14 -105 -23 -35 -9
-70 -17 -78 -19 -8 -2 -35 -10 -60 -19 -25 -9 -53 -19 -62 -21 -9 -2 -39 -13
-65 -25 -26 -12 -52 -23 -58 -24 -5 -1 -30 -13 -54 -28 l-44 -26 34 -32 c44
-40 126 -77 274 -125 121 -39 214 -85 249 -124 23 -25 19 -30 -25 -36 -108
-12 -139 -16 -189 -20 -30 -3 -77 -7 -105 -9 -215 -20 -646 -26 -860 -12 -193
12 -213 14 -224 20 -23 14 -18 -14 8 -55 80 -122 205 -203 388 -250 80 -20 91
-22 203 -38 61 -9 529 -7 595 2 17 2 57 7 90 11 82 10 128 15 178 21 45 6 212
32 262 41 17 3 41 7 55 9 40 5 121 22 124 26 12 13 66 134 84 184 33 99 45
179 39 268 -5 79 -31 167 -49 167 -4 0 -8 6 -8 13 0 28 -126 112 -184 123 -11
2 -32 7 -46 10 -38 9 -229 11 -280 3z"/>
<path d="M5426 6176 c18 -59 23 -95 22 -173 -1 -54 -4 -102 -7 -108 -3 -5 -6
-12 -7 -15 -18 -95 -98 -231 -199 -339 l-50 -53 85 5 c142 10 213 27 309 77
42 21 109 82 133 120 33 55 48 146 34 209 -19 83 -100 198 -189 268 -19 15
-141 83 -149 83 -3 0 5 -33 18 -74z"/>
<path d="M4360 6121 c0 -18 -181 -88 -315 -122 -88 -23 -90 -23 -155 -34 -25
-4 -54 -9 -65 -11 -11 -3 -38 -6 -60 -9 -22 -2 -51 -6 -65 -9 -185 -36 -873
-43 -1140 -10 -95 11 -117 14 -140 18 -14 3 -46 7 -71 10 -26 3 -53 8 -60 10
-8 3 -30 7 -49 10 -19 3 -70 14 -112 24 l-77 19 26 -51 c96 -189 226 -305 428
-384 121 -46 229 -64 408 -67 140 -2 160 -5 176 -21 10 -11 36 -28 59 -38 43
-19 47 -31 45 -103 -1 -7 2 -13 6 -13 16 0 3 -265 -20 -380 -13 -70 -16 -81
-38 -143 -71 -202 -196 -337 -360 -388 -35 -10 -66 -18 -67 -16 -2 2 -6 59 -9
128 -14 341 -17 384 -40 525 -19 121 -34 174 -50 174 -6 0 -30 9 -52 20 -93
44 -191 64 -323 63 -152 -2 -194 -9 -185 -32 4 -9 8 -23 10 -31 8 -38 54 -139
134 -295 81 -157 133 -283 146 -352 2 -15 7 -39 10 -53 3 -14 8 -69 11 -122 6
-94 5 -98 -19 -120 -67 -62 -233 -77 -392 -36 -22 6 -49 12 -60 13 -11 2 -45
8 -75 15 -30 6 -75 14 -99 17 -39 5 -43 3 -38 -13 3 -11 8 -40 11 -65 14 -109
75 -237 144 -300 86 -80 186 -110 347 -104 135 5 270 33 460 97 50 16 95 31
100 32 6 2 23 8 38 14 16 7 33 12 38 12 5 0 17 4 27 10 18 10 291 106 527 184
77 26 149 51 160 56 11 6 56 21 100 35 44 14 89 30 100 35 11 5 58 23 105 41
47 17 104 40 127 50 23 11 45 19 48 19 4 0 21 6 38 14 224 103 209 98 231 79
31 -26 134 -124 286 -273 130 -126 446 -431 541 -521 208 -198 386 -319 534
-362 67 -19 179 -21 237 -4 85 26 182 122 231 228 26 56 24 117 -6 181 -24 53
-91 160 -119 189 -7 8 -31 37 -53 64 -55 70 -93 111 -339 365 -61 64 -136 145
-166 180 -73 84 -88 98 -131 120 -46 24 -64 14 -49 -26 6 -16 12 -31 12 -34 1
-8 9 -31 38 -110 53 -144 68 -207 68 -293 0 -46 -5 -100 -11 -121 -12 -36 -13
-37 -47 -31 -118 22 -267 85 -374 158 -51 34 -159 136 -206 193 -120 147 -256
467 -303 714 -3 14 -12 59 -21 100 -13 67 -24 128 -40 225 -3 17 -8 49 -10 72
-3 23 -6 46 -7 50 -6 37 -3 38 169 38 202 1 276 10 300 36 25 26 88 146 100
190 8 32 7 40 -15 68 -45 57 -129 98 -248 121 -33 7 -85 19 -115 27 -30 8 -66
16 -79 19 -13 3 -41 13 -62 24 -22 10 -39 15 -39 11z m-344 -601 c45 -38 -37
-292 -97 -296 -39 -2 -109 -15 -171 -29 -32 -7 -58 -11 -58 -9 0 3 -5 2 -12
-2 -15 -9 -155 -17 -182 -10 -19 5 -22 12 -21 73 1 37 -5 95 -12 127 -7 32
-12 60 -10 62 2 2 53 18 113 35 60 17 116 34 124 37 20 7 28 9 74 16 22 4 42
8 44 11 10 10 193 -3 208 -15z m39 -550 c50 -33 56 -69 32 -195 -3 -16 -24
-26 -103 -48 -54 -15 -108 -29 -119 -31 -11 -2 -67 -13 -125 -24 -108 -21
-139 -26 -225 -38 -27 -3 -57 -8 -66 -9 -53 -10 -60 72 -17 194 16 47 32 93
35 102 3 13 18 16 66 16 65 0 118 6 237 28 14 3 41 7 60 10 19 3 36 7 37 9 2
1 38 3 82 3 60 1 85 -3 106 -17z"/>
<path d="M3865 5481 c-8 -7 -122 -33 -245 -56 -38 -7 -90 -35 -91 -48 -7 -87
-3 -119 15 -129 20 -11 122 -13 166 -3 14 3 41 8 60 11 19 4 41 11 48 17 6 5
12 7 12 4 0 -3 27 8 61 24 l60 29 -2 60 c-1 33 -9 69 -16 80 -15 21 -52 27
-68 11z"/>
<path d="M3700 4910 c-72 -18 -118 -40 -167 -77 -38 -28 -54 -54 -60 -99 l-4
-33 58 4 c115 9 159 14 223 29 36 8 76 17 90 20 14 3 39 9 57 15 17 5 34 7 37
3 3 -3 6 -1 6 4 0 5 8 10 18 11 28 2 72 22 72 32 0 36 -48 87 -93 98 -53 13
-175 10 -237 -7z"/>
<path d="M4450 5376 c0 -49 83 -138 153 -165 24 -9 25 -8 29 31 5 57 -21 110
-65 131 -44 21 -117 23 -117 3z"/>
<path d="M4090 4120 c-10 -6 -6 -129 5 -170 2 -8 7 -40 10 -70 3 -30 8 -62 10
-70 7 -24 45 -230 51 -275 2 -22 8 -64 13 -93 7 -44 5 -54 -8 -61 -18 -10
-138 -38 -198 -46 -117 -18 -228 -38 -270 -51 -19 -5 -26 3 -62 74 -83 164
-174 176 -247 32 -14 -28 -27 -60 -30 -73 -31 -141 -33 -170 -29 -362 5 -198
8 -263 21 -380 3 -33 7 -78 9 -100 1 -22 5 -58 9 -80 3 -22 8 -60 11 -85 3
-25 7 -56 10 -70 3 -14 7 -38 10 -55 31 -183 88 -346 151 -432 22 -29 26 -30
61 -23 60 14 92 64 106 165 5 42 24 85 39 90 7 2 40 6 73 9 33 3 74 9 90 12
49 11 188 8 211 -4 19 -10 21 -19 18 -69 -3 -65 -11 -164 -19 -234 -3 -25 -7
-72 -10 -105 -2 -32 -7 -93 -10 -134 -15 -178 -20 -437 -10 -535 7 -70 19
-149 25 -165 1 -3 3 -9 4 -15 8 -57 56 -151 99 -196 43 -45 93 -63 177 -63 70
0 111 16 161 66 28 28 76 118 84 157 2 12 7 31 10 41 41 130 37 455 -11 850
-3 30 -7 66 -9 80 -2 14 -6 45 -9 70 -11 78 -15 113 -22 190 l-6 75 183 -1
c101 -1 186 -2 189 -3 8 -2 45 -79 71 -146 13 -33 29 -66 36 -73 7 -7 13 -17
13 -21 0 -12 57 -41 80 -41 23 0 79 40 141 100 44 42 112 130 101 130 -4 0 -2
4 4 8 43 27 140 306 160 457 3 28 8 59 10 70 2 11 7 47 10 80 3 33 7 71 9 85
11 62 24 477 15 488 -3 4 -25 23 -50 42 -25 19 -47 37 -50 40 -3 3 -30 25 -60
50 -30 25 -60 49 -66 55 -33 31 -191 145 -201 145 -3 0 -14 6 -22 13 -30 25
-138 65 -195 72 -94 12 -131 -5 -222 -97 -66 -67 -103 -95 -134 -100 -3 -1
-20 -5 -37 -9 -19 -4 -30 -3 -27 2 3 5 1 9 -4 9 -6 0 -6 17 -1 43 15 81 8 287
-12 367 -48 191 -144 300 -297 340 -44 11 -143 12 -162 0z m858 -955 c3 -3 7
-11 8 -18 1 -7 12 -50 24 -97 23 -92 50 -233 45 -238 -2 -2 -27 4 -56 12 -105
32 -294 38 -399 14 -10 -2 -16 11 -21 42 -4 25 -15 65 -24 90 -19 53 -30 160
-18 177 5 7 27 15 48 19 22 3 41 7 42 8 5 5 346 -4 351 -9z m-759 -98 c1 -29
4 -86 6 -127 2 -41 6 -87 9 -101 l6 -25 -128 0 c-70 1 -152 -2 -182 -7 -96
-13 -124 -17 -155 -21 l-30 -5 -3 62 c-2 61 -3 68 -15 117 -17 69 -15 100 6
112 12 6 31 13 42 14 19 3 42 7 118 19 17 3 82 8 142 11 61 4 111 7 112 8 1 1
17 0 36 -2 33 -4 34 -5 36 -55z m563 -452 c5 -6 8 -6 8 1 0 8 11 9 35 4 21 -5
35 -4 35 2 0 5 5 6 11 3 6 -4 44 -7 85 -7 66 0 76 -2 86 -21 6 -12 10 -23 9
-25 -1 -1 0 -15 3 -30 12 -55 16 -78 22 -127 3 -27 7 -63 9 -78 l4 -29 -52 6
c-104 11 -214 18 -307 20 l-95 1 -22 57 c-26 64 -39 169 -25 195 6 9 16 18 23
19 8 2 30 6 49 10 19 3 36 7 37 8 7 7 79 -1 85 -9z m-562 -87 c-16 -37 -18
-83 -6 -193 2 -22 2 -43 0 -46 -2 -4 -23 -3 -46 3 -65 14 -118 17 -118 5 0 -8
-3 -8 -11 0 -12 12 -64 1 -200 -41 -48 -14 -89 -26 -91 -26 -9 0 -31 114 -33
169 -3 52 10 110 23 112 4 0 27 2 51 4 52 4 125 13 161 20 26 5 72 11 155 21
28 4 51 7 53 9 1 1 20 2 41 1 l38 -1 -17 -37z"/>
<path d="M4662 3122 c-81 -3 -82 -3 -83 -30 -2 -64 0 -90 13 -132 l14 -45 59
-2 c113 -5 210 -5 229 -1 11 3 27 15 37 27 17 21 17 23 0 54 -10 18 -26 53
-36 79 l-17 46 -67 4 c-37 2 -104 2 -149 0z"/>
<path d="M3997 3064 c-1 -1 -22 -4 -47 -8 -25 -3 -69 -12 -97 -20 -29 -8 -53
-12 -53 -10 0 3 -8 0 -18 -5 -15 -8 -18 -22 -17 -83 l0 -73 50 1 c75 2 174 12
230 24 28 6 58 11 68 11 16 0 19 11 19 79 0 64 -2 68 -34 76 -33 7 -96 12
-101 8z"/>
<path d="M4827 2564 c-1 -1 -22 -5 -47 -9 -47 -7 -123 -22 -151 -31 -23 -7
-29 -36 -14 -72 12 -28 50 -59 68 -54 4 1 7 -2 7 -6 0 -5 64 -8 143 -8 l142 1
-2 35 c-1 20 -13 61 -27 91 l-24 55 -46 0 c-25 1 -47 0 -49 -2z"/>
<path d="M3945 2481 c-109 -22 -201 -46 -206 -54 -4 -5 2 -28 12 -51 14 -31
24 -41 41 -40 42 2 142 15 150 20 4 2 43 5 87 5 l81 1 0 37 c0 68 -67 101
-165 82z"/>
<path d="M3227 3999 c-40 -9 -101 -28 -137 -42 -186 -75 -235 -97 -235 -110 0
-42 120 -133 210 -160 191 -56 381 50 402 223 2 19 6 40 8 47 16 50 -113 72
-248 42z"/>
<path d="M2800 3520 c-115 -15 -165 -23 -195 -33 -11 -3 -31 -8 -45 -11 -14
-3 -99 -25 -190 -50 -91 -24 -183 -48 -205 -52 -51 -10 -54 -11 -57 -13 -2 -2
-14 -4 -28 -6 -14 -2 -38 -6 -55 -9 -16 -4 -75 -9 -130 -12 -55 -3 -102 -8
-105 -10 -9 -10 34 -152 64 -209 45 -86 125 -175 164 -182 119 -21 234 7 367
92 43 27 106 58 143 69 20 7 21 5 12 -19 -12 -32 -66 -131 -91 -167 -11 -14
-19 -29 -19 -33 0 -6 -113 -173 -142 -210 -140 -179 -238 -299 -303 -371 -11
-12 -49 -54 -85 -94 -36 -40 -74 -83 -85 -94 -11 -12 -49 -55 -85 -96 -35 -41
-74 -84 -85 -95 -11 -11 -36 -40 -55 -65 -19 -25 -40 -49 -46 -55 -13 -12 -78
-95 -89 -114 -5 -8 -4 -12 2 -8 5 3 22 8 37 11 15 3 49 12 74 20 26 9 50 16
54 17 17 1 193 92 265 137 43 26 141 93 218 149 225 161 335 228 335 203 0 -6
-9 -43 -19 -83 -11 -40 -23 -88 -26 -107 -3 -19 -12 -64 -20 -100 -14 -66 -25
-128 -30 -165 -2 -11 -6 -38 -9 -60 -32 -208 -37 -501 -11 -633 22 -116 29
-143 36 -148 5 -3 9 -12 9 -20 0 -19 41 -107 54 -116 6 -4 14 -4 18 -1 5 2 28
6 51 8 159 14 306 109 385 248 34 60 77 178 87 237 3 19 7 46 10 60 22 125 22
353 0 555 -2 17 -6 57 -10 90 -9 82 -17 143 -30 215 -3 14 -7 41 -10 60 -3 19
-12 73 -20 120 -9 47 -16 94 -18 105 -1 11 -6 26 -10 33 -5 6 -6 12 -4 12 2 0
0 19 -4 43 -13 63 -22 147 -15 147 8 0 67 -127 116 -250 79 -198 153 -283 267
-306 29 -6 30 -6 46 70 11 49 15 102 12 153 -5 93 -8 111 -29 152 -9 17 -16
33 -16 36 2 23 -104 179 -175 259 -29 33 -95 127 -95 136 0 12 34 47 105 105
103 86 160 164 171 236 6 37 4 42 -47 92 -104 101 -250 146 -409 127z"/>
</g>
</svg>
