<?xml version="1.0" encoding="UTF-8" standalone="no"?>
<!-- Created with Inkscape (http://www.inkscape.org/) -->

<svg
   version="1.1"
   id="svg2"
   xml:space="preserve"
   width="816"
   height="1056"
   viewBox="0 0 816 1056"
   sodipodi:docname="bujinkan-logo.ai"
   xmlns:inkscape="http://www.inkscape.org/namespaces/inkscape"
   xmlns:sodipodi="http://sodipodi.sourceforge.net/DTD/sodipodi-0.dtd"
   xmlns="http://www.w3.org/2000/svg"
   xmlns:svg="http://www.w3.org/2000/svg"><defs
     id="defs6"><clipPath
       clipPathUnits="userSpaceOnUse"
       id="clipPath16"><path
         d="M 0,792 H 612 V 0 H 0 Z"
         id="path14" /></clipPath></defs><sodipodi:namedview
     id="namedview4"
     pagecolor="#ffffff"
     bordercolor="#666666"
     borderopacity="1.0"
     inkscape:pageshadow="2"
     inkscape:pageopacity="0.0"
     inkscape:pagecheckerboard="0" /><g
     id="g8"
     inkscape:groupmode="layer"
     inkscape:label="bujinkan-logo"
     transform="matrix(1.3333333,0,0,-1.3333333,0,1056)"><g
       id="g10"><g
         id="g12"
         clip-path="url(#clipPath16)"><g
           id="g18"
           transform="translate(585.2568,357.0459)"><path
             d="m 0,0 c 8.368,108.875 -37.112,184.475 -94.206,233.455 -49.14,42.153 -121.161,76.625 -206.817,69.63 -19.633,-1.624 -40.022,-3.248 -57.349,-8.193 -105.38,-30.375 -183.625,-118.007 -198.635,-235.499 -17.326,-134.654 57.332,-235.676 149.486,-282.607 31.75,-16.215 76.116,-31.483 124.926,-32.77 C -138.232,-259.811 -10.671,-138.656 0,0"
             style="fill:#ffffff;fill-opacity:1;fill-rule:nonzero;stroke:none"
             id="path20" /></g><g
           id="g22"
           transform="translate(585.2568,357.0459)"><path
             d="m 0,0 c 8.368,108.875 -37.112,184.475 -94.206,233.455 -49.14,42.153 -121.161,76.625 -206.817,69.63 -19.633,-1.624 -40.022,-3.248 -57.349,-8.193 -105.38,-30.375 -183.625,-118.007 -198.635,-235.499 -17.326,-134.654 57.332,-235.676 149.486,-282.607 31.75,-16.215 76.116,-31.483 124.926,-32.77 C -138.232,-259.811 -10.671,-138.656 0,0 Z"
             style="fill:none;stroke:#020000;stroke-width:8;stroke-linecap:butt;stroke-linejoin:miter;stroke-miterlimit:10;stroke-dasharray:none;stroke-opacity:1"
             id="path24" /></g><g
           id="g26"
           transform="translate(317.8457,489.2568)"><path
             d="m 0,0 c 2.886,6.339 6.754,11.61 5.934,21.736 -14.247,5.185 -30.959,-3.048 -43.469,-5.93 2.059,-5.185 2.305,-12.184 1.973,-19.758 C -20.824,-5.6 -12.59,-0.659 0,0 m 9.889,-35.565 c 9.713,31.039 -23.878,11.525 -45.451,13.828 -2.057,-6.749 -8.231,-17.04 -3.95,-23.71 17.62,2.059 34.166,5.271 49.401,9.882 m 154.112,-81.016 c -0.081,-8.064 -10.533,-21.732 -19.747,-23.709 -25.197,-5.515 -49.816,20.992 -67.183,37.538 -21.498,20.342 -37.547,36.969 -53.352,51.376 -20.253,-10.372 -49.399,-20.333 -82.99,-31.613 -44.377,-14.898 -104.724,-45.86 -110.649,15.806 16.63,-1.399 38.692,-12.019 51.37,0 1.895,34.171 -16.96,47.59 -23.71,73.112 16.713,3.787 31.864,0.49 43.469,-5.929 5.105,-17.291 4.94,-39.931 5.93,-61.253 31.861,4.446 41.33,47.42 35.565,77.059 -2.634,1.978 -7.409,1.813 -7.905,5.93 -41.244,-3.048 -65.449,10.95 -77.059,37.543 C -94.425,45.526 -0.57,47.42 31.622,67.182 44.3,60.099 66.78,62.736 73.116,49.398 72.456,41.494 67.681,37.624 65.204,31.612 55.412,28.815 42.082,29.639 29.644,29.639 c 7.494,-56.396 20.833,-106.948 75.085,-116.58 6.753,17.29 -4.695,33.427 -7.912,47.424 5.275,2.059 12.529,-7.658 17.787,-13.832 9.308,-11.116 49.397,-46.765 49.397,-63.232"
             style="fill:#000000;fill-opacity:1;fill-rule:nonzero;stroke:none"
             id="path28" /></g><g
           id="g30"
           transform="translate(335.6299,267.9561)"><path
             d="m 0,0 c 0.09,11.44 -2.878,14.327 1.979,21.731 -14.07,-0.329 -28.397,-4.526 -37.541,-3.947 -4.61,-5.604 -0.658,-15.316 0,-21.74 C -24.858,-0.828 -13.089,4.856 0,0 M 1.979,39.517 C -0.161,48.079 0.997,58.209 0,63.226 c -14.318,0.411 -26.918,-0.739 -37.538,-3.948 -0.246,-8.152 3.376,-12.437 1.976,-21.74 13.919,2.557 28.817,4.206 37.541,1.979 m 61.248,0 c -0.979,10.21 -3.94,18.444 -5.918,27.666 -10.87,-0.991 -25.936,2.137 -33.589,-1.979 -1.078,-10.292 3.778,-14.657 3.946,-23.71 12.438,3.127 25.189,1.978 35.561,-1.977 M 65.205,1.978 c -0.322,8.891 -1.56,16.875 -3.939,23.71 -10.87,-0.991 -25.937,2.137 -33.6,-1.979 -0.909,-8.811 1.406,-14.407 3.948,-19.762 12.43,0.579 23.38,-0.329 33.591,-1.969 m 43.48,63.226 C 108.349,18.685 104.89,-24.618 75.094,-41.495 63.982,-40.096 65.623,-25.937 59.287,-19.763 H 31.614 c 1.656,-28.317 22.56,-122.336 -19.755,-114.601 -29.224,5.273 -15.147,82.578 -13.829,112.632 -8.321,5.265 -19.931,-0.499 -29.639,0 -6.175,-4.367 0.496,-19.763 -13.832,-19.763 -11.855,11.939 -15.972,48.489 -17.784,77.064 -1.48,22.97 -2.469,46.431 9.879,55.323 11.197,0.66 11.117,-9.962 15.808,-15.808 11.522,3.538 26.508,3.788 37.538,7.904 -1.722,19.345 -7.154,34.991 -7.896,55.324 28.237,5.02 41.408,-21.733 35.562,-57.301 15.156,-0.989 14.986,14.817 27.666,15.806 18.523,1.4 40.007,-22.062 53.353,-31.613"
             style="fill:#000000;fill-opacity:1;fill-rule:nonzero;stroke:none"
             id="path32" /></g><g
           id="g34"
           transform="translate(426.5313,566.3159)"><path
             d="M 0,0 C 37.708,-15.312 37.867,-58.371 -15.808,-57.301 -2.879,-45.361 11.271,-24.534 0,0"
             style="fill:#000000;fill-opacity:1;fill-rule:nonzero;stroke:none"
             id="path36" /></g><g
           id="g38"
           transform="translate(390.9619,289.6875)"><path
             d="M 0,0 C 1.479,-4.446 4.117,-7.734 3.955,-13.828 -7.992,-13.249 -24.86,-17.615 -23.718,-3.947 -16.885,-1.561 -8.893,-0.329 0,0"
             style="fill:#000000;fill-opacity:1;fill-rule:nonzero;stroke:none"
             id="path40" /></g><g
           id="g42"
           transform="translate(387.0068,331.1816)"><path
             d="m 0,0 c 2.797,-3.127 2.637,-9.221 5.932,-11.85 -2.315,-7.662 -17.374,-2.476 -25.695,-3.956 -1.23,4.696 -2.879,8.973 -1.969,15.806 z"
             style="fill:#000000;fill-opacity:1;fill-rule:nonzero;stroke:none"
             id="path44" /></g><g
           id="g46"
           transform="translate(355.0547,501.1113)"><path
             d="M 0,0 C 10.781,1.564 15.397,-3.047 13.838,-13.833 6.754,-11.69 2.147,-7.08 0,0"
             style="fill:#000000;fill-opacity:1;fill-rule:nonzero;stroke:none"
             id="path48" /></g><g
           id="g50"
           transform="translate(355.3926,621.6436)"><path
             d="m 0,0 c 13.668,-11.94 6.994,-35.896 -1.979,-51.376 -47.829,-8.727 -127.11,-20.828 -144.236,17.785 33.837,-4.117 76.65,-2.224 108.668,1.977 -9.134,13.255 -33.997,10.781 -43.464,23.71 C -64.875,1.729 -18.605,16.051 0,0"
             style="fill:#000000;fill-opacity:1;fill-rule:nonzero;stroke:none"
             id="path52" /></g><g
           id="g54"
           transform="translate(331.6836,325.2568)"><path
             d="m 0,0 v -9.881 c -7.824,-2.799 -18.274,-2.878 -27.663,-3.948 V -1.978 C -20.012,-0.41 -7.164,4.116 0,0"
             style="fill:#000000;fill-opacity:1;fill-rule:nonzero;stroke:none"
             id="path56" /></g><g
           id="g58"
           transform="translate(302.0439,279.8066)"><path
             d="M 0,0 C 8.316,0.329 30.629,11.449 27.67,-5.926 17.208,-4.768 10.624,-7.405 1.977,-7.903 2.222,-4.357 -0.496,-3.786 0,0"
             style="fill:#000000;fill-opacity:1;fill-rule:nonzero;stroke:none"
             id="path60" /></g><g
           id="g62"
           transform="translate(282.2842,449.7402)"><path
             d="M 0,0 C -3.457,16.876 42.974,24.284 41.495,7.904 28.816,4.032 15.892,0.575 0,0"
             style="fill:#000000;fill-opacity:1;fill-rule:nonzero;stroke:none"
             id="path64" /></g><g
           id="g66"
           transform="translate(313.8984,509.0146)"><path
             d="m 0,0 c 5.024,-0.246 3.866,-6.668 3.947,-11.855 -7.154,-4.611 -22.552,-9.716 -31.609,-5.925 v 9.877 C -20.498,-3.292 -8.149,-3.786 0,0"
             style="fill:#000000;fill-opacity:1;fill-rule:nonzero;stroke:none"
             id="path68" /></g><g
           id="g70"
           transform="translate(282.2842,396.3862)"><path
             d="M 0,0 C 0.576,-30.375 -36.388,-29.884 -47.42,-9.881 -33.425,-5.845 -17.949,6.344 0,0"
             style="fill:#000000;fill-opacity:1;fill-rule:nonzero;stroke:none"
             id="path72" /></g><g
           id="g74"
           transform="translate(244.7422,319.332)"><path
             d="M 0,0 C 10.127,-16.555 32.192,-30.633 21.737,-61.257 0.33,-57.632 1.07,-31.863 -9.878,-17.786 -4.281,-56.811 25.277,-162.03 -41.495,-164 c -16.216,27.496 -5.68,80.432 1.978,108.668 -21.325,-9.713 -43.472,-35.649 -75.085,-41.494 27.581,35.569 62.242,64.223 82.989,106.699 -10.291,0.329 -20.088,-16.876 -41.494,-11.852 -8.318,6.834 -14.244,16.056 -15.808,29.637 40.505,-2.389 85.952,33.59 110.652,0 C 19.758,13.088 7.574,8.804 0,0"
             style="fill:#000000;fill-opacity:1;fill-rule:nonzero;stroke:none"
             id="path76" /></g></g></g></g></svg>
